<!DOCTYPE svg PUBLIC "-//W3C//DTD SVG 1.1//EN" "http://www.w3.org/Graphics/SVG/1.1/DTD/svg11.dtd">
<!-- Uploaded to: SVG Repo, www.svgrepo.com, Transformed by: SVG Repo Mixer Tools -->
<svg fill="#ffffff" height="800px" width="800px" version="1.1" id="Capa_1" xmlns="http://www.w3.org/2000/svg" xmlns:xlink="http://www.w3.org/1999/xlink" viewBox="-10.8 -10.8 81.60 81.60" xml:space="preserve">
<g id="SVGRepo_bgCarrier" stroke-width="0" transform="translate(0,0), scale(1)"/>
<g id="SVGRepo_tracerCarrier" stroke-linecap="round" stroke-linejoin="round" stroke="#CCCCCC" stroke-width="0.12"/>
<g id="SVGRepo_iconCarrier"> <g> <path d="M58.199,47.02c-0.549-0.104-1.069,0.24-1.18,0.781C55.903,53.303,51.574,57,46.249,57c-5.028,0-9.446-3.3-10.948-8H40v-2 h-8v8h2v-3.848C36.169,55.833,40.915,59,46.249,59c6.304,0,11.42-4.341,12.731-10.801C59.09,47.657,58.74,47.13,58.199,47.02z"/> <path d="M58,35v4.308C55.75,34.855,51.296,32,46.249,32c-6.109,0-11.541,3.997-13.209,9.721c-0.154,0.53,0.15,1.085,0.681,1.239 c0.531,0.157,1.086-0.15,1.239-0.681C36.358,37.482,41.105,34,46.249,34c4.565,0,8.562,2.766,10.33,7H52v2h8v-8H58z"/> <path d="M29,32c0-3.309,2.916-6,6.5-6c1.746,0,3.331,0.642,4.5,1.68v-9.51l-17,2.684v17.248c0,0.013-0.007,0.025-0.008,0.038 C22.911,41.383,20.033,44,16.5,44c-3.584,0-6.5-2.691-6.5-6s2.916-6,6.5-6c1.746,0,3.331,0.642,4.5,1.68V20v-2.714V14 c0-0.492,0.358-0.911,0.844-0.987l19-3c0.29-0.047,0.583,0.037,0.805,0.228C41.872,10.43,42,10.708,42,11v1v5v12.382 C43.129,29.137,44.298,29,45.5,29c4.996,0,9.472,2.241,12.5,5.761V2.565C58,1.701,57.299,1,56.435,1H1.565C0.701,1,0,1.701,0,2.565 v45.869C0,49.299,0.701,50,1.565,50H29.64C29.232,48.567,29,47.062,29,45.5c0-3.217,0.94-6.213,2.539-8.753 C29.998,35.648,29,33.932,29,32z"/> </g> </g>
</svg>